<svg width="420" height="409" viewBox="0 0 420 409" fill="none" xmlns="http://www.w3.org/2000/svg">
<path d="M222.396 148.259L274.14 96.7539L312.438 134.926V317.141L289.591 339.986V144.504L274.14 129.174L244.072 159.242L243.906 385.543C243.904 386.763 221.059 408.521 221.059 408.521V151.513C221.061 150.293 221.542 149.123 222.396 148.259Z" fill="#070826"/>
<path d="M196.876 148.259L145.133 96.7539L106.834 134.926V317.141L129.681 339.986V144.504L145.133 129.174L175.201 159.242L175.366 385.543C175.369 386.763 198.214 408.521 198.214 408.521V151.513C198.211 150.293 197.73 149.123 196.876 148.259Z" fill="#070826"/>
<path d="M175.372 94.7394V66.5874L209.804 32.2159L244.236 66.5874L244.236 94.4035L267.084 71.6212V57.1911L209.804 0L152.523 57.1911V71.6212L175.372 94.7394Z" fill="#070826"/>
<path d="M335.62 125.984L335.62 158.237L387.357 209.971L335.62 261.876V294.128L419.44 209.971L335.62 125.984Z" fill="#070826"/>
<path d="M83.8209 125.984L83.8209 158.237L32.0837 209.971L83.8209 261.876V294.128L0 209.971L83.8209 125.984Z" fill="#070826"/>
</svg>
